<svg width="16" height="16" viewBox="0 0 16 16" fill="none" xmlns="http://www.w3.org/2000/svg">
<g id="Frame">
<path id="Vector" d="M2.57055 7.84283C2.60081 7.90643 2.63308 7.96896 2.66748 8.03136C2.81428 8.29536 2.99415 8.5359 3.20668 8.7503C3.41881 8.96576 3.65481 9.14043 3.91468 9.27416C4.17428 9.40896 4.45148 9.4767 4.74455 9.4767C5.08428 9.4767 5.40308 9.3939 5.70068 9.2279C5.99828 9.0619 6.26108 8.84736 6.48748 8.5823C6.71388 8.31816 6.89148 8.02083 7.01881 7.6887C7.13401 7.3891 7.19788 7.0907 7.20855 6.79083C6.34081 6.51176 5.71134 5.69803 5.71134 4.73763C5.71134 3.54776 6.67695 2.58203 7.86694 2.58203H7.87881C7.88201 2.58203 7.88641 2.58203 7.89067 2.58203C7.97481 2.58203 8.0588 2.5875 8.1408 2.59923C9.20121 2.73403 10.0225 3.64043 10.0225 4.73764C10.0225 5.7067 9.38227 6.5267 8.50281 6.79737C8.51587 7.0895 8.57827 7.38057 8.69161 7.6683C8.81867 7.9959 8.99334 8.29124 9.21547 8.55524C9.43747 8.82044 9.69721 9.03497 9.99587 9.20097C10.2932 9.36684 10.6124 9.44977 10.9517 9.44977C11.2449 9.44977 11.5209 9.3819 11.7807 9.2483C12.0404 9.1135 12.2776 8.94097 12.4899 8.72977C12.7023 8.51964 12.8821 8.28257 13.0276 8.01844C13.0633 7.95404 13.0967 7.8903 13.1268 7.8267C12.5673 7.57244 12.1784 7.00871 12.1784 6.35444C12.1784 5.46204 12.9027 4.73777 13.7952 4.73777C14.6873 4.73777 15.4119 5.46203 15.4119 6.35444C15.4119 6.9979 15.0345 7.55404 14.4903 7.81497C14.4515 8.07044 14.4061 8.3279 14.3536 8.58977C14.2585 9.05537 14.1411 9.51897 13.9989 9.98017C13.8576 10.4414 13.6917 10.8878 13.5031 11.3176C13.3144 11.7478 13.1064 12.1412 12.8789 12.5C12.0955 12.7782 11.2827 12.9904 10.442 13.138C9.60134 13.2858 8.73574 13.3602 7.84774 13.3602C6.95961 13.3602 6.09747 13.2858 5.262 13.138C4.4256 12.9904 3.61068 12.7782 2.81653 12.5C2.59013 12.1412 2.38213 11.7476 2.19347 11.3176C2.00373 10.8876 1.83893 10.4414 1.6964 9.98017C1.55533 9.51897 1.43453 9.05537 1.33533 8.58977C1.27827 8.31924 1.2308 8.0531 1.19413 7.78897C0.675866 7.5195 0.322266 6.97857 0.322266 6.35444C0.322266 5.46204 1.04667 4.73777 1.93894 4.73777C2.83134 4.73777 3.55561 5.46203 3.55561 6.35444C3.55561 7.02256 3.14934 7.59697 2.57055 7.84283Z" fill="white"/>
</g>
</svg>
