<svg width="16" height="16" viewBox="0 0 16 16" fill="none" xmlns="http://www.w3.org/2000/svg">
<g id="Frame 1000004505">
<g id="Group 1000004861">
<g id="Union">
<mask id="path-1-outside-1_2294_2139" maskUnits="userSpaceOnUse" x="0" y="1.6123" width="16" height="14" fill="black">
<rect fill="white" y="1.6123" width="16" height="14"/>
<path fill-rule="evenodd" clip-rule="evenodd" d="M3.72244 6.112H3.33333C2.47422 6.112 1.77778 6.80845 1.77778 7.66756V11.0898C1.77778 11.9489 2.47423 12.6453 3.33333 12.6453H3.9595C4.34444 12.6453 4.72341 12.7406 5.06262 12.9226L7.37647 14.164C7.54472 13.2986 8.30672 12.6453 9.22128 12.6453H9.62735C10.4468 12.6453 11.1111 11.981 11.1111 11.1616V10.0009V7.66756C11.1111 6.80845 10.4147 6.112 9.55556 6.112H4.50022V6.1123H3.72244V6.112ZM4.50022 5.33422H9.55556C10.8442 5.33422 11.8889 6.37889 11.8889 7.66756V10.0009V10.7012H12.6669C13.7408 10.7012 14.6113 9.83064 14.6113 8.75675V5.33453C14.6113 4.26064 13.7408 3.39008 12.6669 3.39008H6.44466C5.37088 3.39008 4.50038 4.26048 4.50022 5.33422ZM11.8668 11.479C11.7125 12.5777 10.7686 13.4231 9.62735 13.4231H9.22128C8.61287 13.4231 8.11966 13.9163 8.11966 14.5247C8.11966 14.9412 7.67538 15.207 7.30844 15.0101L4.69491 13.6079C4.46877 13.4866 4.21613 13.4231 3.9595 13.4231H3.33333C2.04467 13.4231 1 12.3784 1 11.0898V7.66756C1 6.37889 2.04467 5.33422 3.33333 5.33422H3.72244C3.7226 3.83092 4.94132 2.6123 6.44466 2.6123H12.6669C14.1703 2.6123 15.3891 3.83108 15.3891 5.33453V8.75675C15.3891 10.2602 14.1703 11.479 12.6669 11.479H11.8668Z"/>
</mask>
<path fill-rule="evenodd" clip-rule="evenodd" d="M3.72244 6.112H3.33333C2.47422 6.112 1.77778 6.80845 1.77778 7.66756V11.0898C1.77778 11.9489 2.47423 12.6453 3.33333 12.6453H3.9595C4.34444 12.6453 4.72341 12.7406 5.06262 12.9226L7.37647 14.164C7.54472 13.2986 8.30672 12.6453 9.22128 12.6453H9.62735C10.4468 12.6453 11.1111 11.981 11.1111 11.1616V10.0009V7.66756C11.1111 6.80845 10.4147 6.112 9.55556 6.112H4.50022V6.1123H3.72244V6.112ZM4.50022 5.33422H9.55556C10.8442 5.33422 11.8889 6.37889 11.8889 7.66756V10.0009V10.7012H12.6669C13.7408 10.7012 14.6113 9.83064 14.6113 8.75675V5.33453C14.6113 4.26064 13.7408 3.39008 12.6669 3.39008H6.44466C5.37088 3.39008 4.50038 4.26048 4.50022 5.33422ZM11.8668 11.479C11.7125 12.5777 10.7686 13.4231 9.62735 13.4231H9.22128C8.61287 13.4231 8.11966 13.9163 8.11966 14.5247C8.11966 14.9412 7.67538 15.207 7.30844 15.0101L4.69491 13.6079C4.46877 13.4866 4.21613 13.4231 3.9595 13.4231H3.33333C2.04467 13.4231 1 12.3784 1 11.0898V7.66756C1 6.37889 2.04467 5.33422 3.33333 5.33422H3.72244C3.7226 3.83092 4.94132 2.6123 6.44466 2.6123H12.6669C14.1703 2.6123 15.3891 3.83108 15.3891 5.33453V8.75675C15.3891 10.2602 14.1703 11.479 12.6669 11.479H11.8668Z" fill="white"/>
<path d="M3.72244 6.112H3.92244V5.912H3.72244V6.112ZM5.06262 12.9226L5.15717 12.7463H5.15717L5.06262 12.9226ZM7.37647 14.164L7.28192 14.3402L7.52101 14.4685L7.5728 14.2021L7.37647 14.164ZM4.50022 6.112V5.912H4.30022V6.112H4.50022ZM4.50022 6.1123V6.3123H4.70022V6.1123H4.50022ZM3.72244 6.1123H3.52244V6.3123H3.72244V6.1123ZM4.50022 5.33422L4.30022 5.33419L4.30019 5.53422H4.50022V5.33422ZM11.8889 10.7012H11.6889V10.9012H11.8889V10.7012ZM11.8668 11.479V11.279H11.6929L11.6687 11.4512L11.8668 11.479ZM7.30844 15.0101L7.40299 14.8339L7.30844 15.0101ZM4.69491 13.6079L4.60036 13.7842L4.69491 13.6079ZM3.72244 5.33422V5.53422H3.92242L3.92244 5.33424L3.72244 5.33422ZM3.33333 6.312H3.72244V5.912H3.33333V6.312ZM1.97778 7.66756C1.97778 6.9189 2.58468 6.312 3.33333 6.312V5.912C2.36377 5.912 1.57778 6.69799 1.57778 7.66756H1.97778ZM1.97778 11.0898V7.66756H1.57778V11.0898H1.97778ZM3.33333 12.4453C2.58468 12.4453 1.97778 11.8384 1.97778 11.0898H1.57778C1.57778 12.0593 2.36377 12.8453 3.33333 12.8453V12.4453ZM3.9595 12.4453H3.33333V12.8453H3.9595V12.4453ZM5.15717 12.7463C4.78888 12.5487 4.37744 12.4453 3.9595 12.4453V12.8453C4.31145 12.8453 4.65793 12.9324 4.96806 13.0988L5.15717 12.7463ZM7.47103 13.9877L5.15717 12.7463L4.96806 13.0988L7.28192 14.3402L7.47103 13.9877ZM9.22128 12.4453C8.20917 12.4453 7.36632 13.1682 7.18015 14.1258L7.5728 14.2021C7.72312 13.429 8.40427 12.8453 9.22128 12.8453V12.4453ZM9.62735 12.4453H9.22128V12.8453H9.62735V12.4453ZM10.9111 11.1616C10.9111 11.8706 10.3364 12.4453 9.62735 12.4453V12.8453C10.5573 12.8453 11.3111 12.0915 11.3111 11.1616H10.9111ZM10.9111 10.0009V11.1616H11.3111V10.0009H10.9111ZM10.9111 7.66756V10.0009H11.3111V7.66756H10.9111ZM9.55556 6.312C10.3042 6.312 10.9111 6.9189 10.9111 7.66756H11.3111C11.3111 6.69799 10.5251 5.912 9.55556 5.912V6.312ZM4.50022 6.312H9.55556V5.912H4.50022V6.312ZM4.30022 6.112V6.1123H4.70022V6.112H4.30022ZM4.50022 5.9123H3.72244V6.3123H4.50022V5.9123ZM3.92244 6.1123V6.112H3.52244V6.1123H3.92244ZM4.50022 5.53422H9.55556V5.13422H4.50022V5.53422ZM9.55556 5.53422C10.7338 5.53422 11.6889 6.48935 11.6889 7.66756H12.0889C12.0889 6.26844 10.9547 5.13422 9.55556 5.13422V5.53422ZM11.6889 7.66756V10.0009H12.0889V7.66756H11.6889ZM11.6889 10.0009V10.7012H12.0889V10.0009H11.6889ZM11.8889 10.9012H12.6669V10.5012H11.8889V10.9012ZM12.6669 10.9012C13.8512 10.9012 14.8113 9.94109 14.8113 8.75675H14.4113C14.4113 9.72018 13.6303 10.5012 12.6669 10.5012V10.9012ZM14.8113 8.75675V5.33453H14.4113V8.75675H14.8113ZM14.8113 5.33453C14.8113 4.15018 13.8512 3.19008 12.6669 3.19008V3.59008C13.6303 3.59008 14.4113 4.3711 14.4113 5.33453H14.8113ZM12.6669 3.19008H6.44466V3.59008H12.6669V3.19008ZM6.44466 3.19008C5.26043 3.19008 4.3004 4.15 4.30022 5.33419L4.70022 5.33425C4.70036 4.37095 5.48132 3.59008 6.44466 3.59008V3.19008ZM11.6687 11.4512C11.5281 12.4525 10.6675 13.2231 9.62735 13.2231V13.6231C10.8697 13.6231 11.8969 12.7029 12.0648 11.5068L11.6687 11.4512ZM9.62735 13.2231H9.22128V13.6231H9.62735V13.2231ZM9.22128 13.2231C8.50242 13.2231 7.91966 13.8059 7.91966 14.5247H8.31966C8.31966 14.0268 8.72333 13.6231 9.22128 13.6231V13.2231ZM7.91966 14.5247C7.91966 14.79 7.6367 14.9593 7.40299 14.8339L7.21389 15.1863C7.71407 15.4547 8.31966 15.0924 8.31966 14.5247H7.91966ZM7.40299 14.8339L4.78946 13.4317L4.60036 13.7842L7.21389 15.1863L7.40299 14.8339ZM4.78946 13.4317C4.53425 13.2948 4.24912 13.2231 3.9595 13.2231V13.6231C4.18313 13.6231 4.40329 13.6784 4.60036 13.7842L4.78946 13.4317ZM3.9595 13.2231H3.33333V13.6231H3.9595V13.2231ZM3.33333 13.2231C2.15513 13.2231 1.2 12.268 1.2 11.0898H0.8C0.8 12.4889 1.93421 13.6231 3.33333 13.6231V13.2231ZM1.2 11.0898V7.66756H0.8V11.0898H1.2ZM1.2 7.66756C1.2 6.48935 2.15513 5.53422 3.33333 5.53422V5.13422C1.93421 5.13422 0.8 6.26843 0.8 7.66756H1.2ZM3.33333 5.53422H3.72244V5.13422H3.33333V5.53422ZM3.92244 5.33424C3.92259 3.94139 5.05177 2.8123 6.44466 2.8123V2.4123C4.83087 2.4123 3.52261 3.72045 3.52244 5.3342L3.92244 5.33424ZM6.44466 2.8123H12.6669V2.4123H6.44466V2.8123ZM12.6669 2.8123C14.0599 2.8123 15.1891 3.94154 15.1891 5.33453H15.5891C15.5891 3.72063 14.2808 2.4123 12.6669 2.4123V2.8123ZM15.1891 5.33453V8.75675H15.5891V5.33453H15.1891ZM15.1891 8.75675C15.1891 10.1497 14.0599 11.279 12.6669 11.279V11.679C14.2808 11.679 15.5891 10.3706 15.5891 8.75675H15.1891ZM12.6669 11.279H11.8668V11.679H12.6669V11.279Z" fill="white" mask="url(#path-1-outside-1_2294_2139)"/>
</g>
</g>
</g>
</svg>
