<svg width="48" height="48" viewBox="0 0 48 48" fill="none" xmlns="http://www.w3.org/2000/svg">
<g id="Frame">
<path id="Vector" d="M24 3C12.4031 3 3 12.4031 3 24C3 35.5969 12.4031 45 24 45C35.5969 45 45 35.5969 45 24C45 12.4031 35.5969 3 24 3ZM33 25.125C33 25.3313 32.8313 25.5 32.625 25.5H25.5V32.625C25.5 32.8313 25.3313 33 25.125 33H22.875C22.6687 33 22.5 32.8313 22.5 32.625V25.5H15.375C15.1687 25.5 15 25.3313 15 25.125V22.875C15 22.6687 15.1687 22.5 15.375 22.5H22.5V15.375C22.5 15.1687 22.6687 15 22.875 15H25.125C25.3313 15 25.5 15.1687 25.5 15.375V22.5H32.625C32.8313 22.5 33 22.6687 33 22.875V25.125Z" fill="white"/>
</g>
</svg>
