<svg width="16" height="16" viewBox="0 0 16 16" fill="none" xmlns="http://www.w3.org/2000/svg">
<g id="Frame 1000004857">
<path id="Vector" d="M10.931 3.0075L10.989 3.0045C11.1116 3.00439 11.2299 3.0493 11.3215 3.13069C11.4131 3.21208 11.4717 3.32429 11.486 3.446L11.489 3.5045V5.9995L12.4985 6C13.0289 6 13.5376 6.21071 13.9127 6.58579C14.2878 6.96086 14.4985 7.46957 14.4985 8V13.011C14.7585 13.011 14.97 13.204 14.9985 13.453L15.0025 13.511C15.0026 13.6336 14.9576 13.752 14.8761 13.8437C14.7946 13.9353 14.6823 13.9938 14.5605 14.008L14.502 14.011H1.5C1.36739 14.011 1.24021 13.9583 1.14645 13.8646C1.05268 13.7708 1 13.6436 1 13.511C1 13.3784 1.05268 13.2512 1.14645 13.1574C1.24021 13.0637 1.36739 13.011 1.5 13.011H1.498L1.4985 8C1.4985 7.46957 1.70921 6.96086 2.08429 6.58579C2.45936 6.21071 2.96807 6 3.4985 6H4.4885L4.489 3.5045C4.48891 3.38187 4.53388 3.26348 4.61538 3.17185C4.69687 3.08022 4.8092 3.02173 4.931 3.0075L4.989 3.0045C5.11155 3.00439 5.22988 3.0493 5.3215 3.13069C5.41312 3.21208 5.47166 3.32429 5.486 3.446L5.489 3.5045V5.9995H7.489V3.505C7.48891 3.38237 7.53388 3.26398 7.61538 3.17235C7.69687 3.08072 7.8092 3.02223 7.931 3.008L7.989 3.005C8.11155 3.00489 8.22988 3.0498 8.3215 3.13119C8.41312 3.21258 8.47166 3.32479 8.486 3.4465L8.489 3.505V6H10.489V3.505C10.4889 3.38237 10.5339 3.26398 10.6154 3.17235C10.6969 3.08072 10.8092 3.02223 10.931 3.008L10.989 3.005L10.931 3.0075ZM10.6635 10.615C9.776 11.092 8.8825 11.3335 7.9865 11.3335C7.093 11.3335 6.2085 11.0935 5.339 10.618C4.786 11.088 4.2125 11.3335 3.621 11.3335C3.236 11.3335 2.8615 11.2295 2.498 11.0275V13H13.498V11.032C13.1395 11.231 12.7695 11.3335 12.388 11.3335C11.797 11.3335 11.2215 11.087 10.6635 10.615ZM12.4985 7H11.0535C11.011 7.00543 10.968 7.00543 10.9255 7H8.053C8.01067 7.00539 7.96783 7.00539 7.9255 7H5.053C5.01067 7.00539 4.96783 7.00539 4.9255 7H3.4985C3.23328 7 2.97893 7.10536 2.79139 7.29289C2.60386 7.48043 2.4985 7.73478 2.4985 8V9.791C2.8955 10.161 3.2685 10.3335 3.6215 10.3335C3.9925 10.3335 4.3925 10.144 4.8245 9.7375L4.9175 9.647L5.1975 9.3665L5.534 9.5745C6.358 10.0835 7.1735 10.3335 7.987 10.3335C8.748 10.3335 9.5195 10.115 10.306 9.6705L10.475 9.572L10.809 9.37L11.086 9.645C11.559 10.1155 11.9925 10.3335 12.3885 10.3335C12.7395 10.3335 13.108 10.162 13.4985 9.793V8C13.4985 7.73478 13.3931 7.48043 13.2056 7.29289C13.0181 7.10536 12.7637 7 12.4985 7ZM7.9985 1C8.13111 1 8.25829 1.05268 8.35205 1.14645C8.44582 1.24021 8.4985 1.36739 8.4985 1.5C8.4985 1.63261 8.44582 1.75979 8.35205 1.85355C8.25829 1.94732 8.13111 2 7.9985 2C7.86589 2 7.73871 1.94732 7.64495 1.85355C7.55118 1.75979 7.4985 1.63261 7.4985 1.5C7.4985 1.36739 7.55118 1.24021 7.64495 1.14645C7.73871 1.05268 7.86589 1 7.9985 1ZM10.9985 1C11.1311 1 11.2583 1.05268 11.3521 1.14645C11.4458 1.24021 11.4985 1.36739 11.4985 1.5C11.4985 1.63261 11.4458 1.75979 11.3521 1.85355C11.2583 1.94732 11.1311 2 10.9985 2C10.8659 2 10.7387 1.94732 10.6449 1.85355C10.5512 1.75979 10.4985 1.63261 10.4985 1.5C10.4985 1.36739 10.5512 1.24021 10.6449 1.14645C10.7387 1.05268 10.8659 1 10.9985 1ZM4.9985 1C5.13111 1 5.25828 1.05268 5.35205 1.14645C5.44582 1.24021 5.4985 1.36739 5.4985 1.5C5.4985 1.63261 5.44582 1.75979 5.35205 1.85355C5.25828 1.94732 5.13111 2 4.9985 2C4.86589 2 4.73871 1.94732 4.64495 1.85355C4.55118 1.75979 4.4985 1.63261 4.4985 1.5C4.4985 1.36739 4.55118 1.24021 4.64495 1.14645C4.73871 1.05268 4.86589 1 4.9985 1Z" fill="url(#paint0_linear_2669_12425)"/>
</g>
<defs>
<linearGradient id="paint0_linear_2669_12425" x1="4.75067" y1="2.51021" x2="11.0392" y2="13.266" gradientUnits="userSpaceOnUse">
<stop stop-color="#A564FF"/>
<stop offset="1" stop-color="#5EA1F9"/>
</linearGradient>
</defs>
</svg>
