<svg width="16" height="16" viewBox="0 0 16 16" fill="none" xmlns="http://www.w3.org/2000/svg">
<g id="Frame 474900">
<path id="Subtract" fill-rule="evenodd" clip-rule="evenodd" d="M5 3C3.34315 3 2 4.34315 2 6V9.57978C2 10.9901 3.14326 12.1333 4.55355 12.1333H5.01205C5.69902 12.1333 6.25592 12.6902 6.25592 13.3772C6.25592 13.8474 6.75756 14.1475 7.17188 13.9252L10.0689 12.371C10.3597 12.215 10.6845 12.1333 11.0145 12.1333H11.2949C12.9517 12.1333 14.2949 10.7902 14.2949 9.13333V6C14.2949 4.34315 12.9517 3 11.2949 3H5ZM5.51367 6.0127C5.23753 6.0127 5.01367 6.23655 5.01367 6.5127C5.01367 6.78884 5.23753 7.0127 5.51367 7.0127H7.70918C7.98533 7.0127 8.20918 6.78884 8.20918 6.5127C8.20918 6.23655 7.98533 6.0127 7.70918 6.0127H5.51367Z" fill="white"/>
</g>
</svg>
