<svg width="44" height="44" viewBox="0 0 44 44" fill="none" xmlns="http://www.w3.org/2000/svg">
<g id="Group 1000004813">
<circle id="Ellipse 3787" cx="22" cy="22" r="22" fill="#E0E5FF"/>
<g id="Frame" clip-path="url(#clip0_2462_10441)">
<path id="Union" fill-rule="evenodd" clip-rule="evenodd" d="M32.4685 29.302V12.035C22.5589 11.5951 22.4332 16.2817 22.4332 16.2817V30.6579C24.9662 29.3262 32.4685 29.302 32.4685 29.302ZM11.5314 12.035V29.302C11.5314 29.302 19.0338 29.3262 21.5668 30.6579V16.2817C21.5668 16.2817 21.4411 11.5951 11.5314 12.035ZM34.3744 14.4496H33.4463V29.6718C33.4463 29.6718 23.7614 30.9794 22.9275 31.4652L23.423 32.3933H33.555C33.555 32.3933 34.1955 32.2918 34.1955 31.3879L34.3744 14.4496ZM9.625 14.4498H10.5531V29.672C10.5531 29.672 20.238 30.9796 21.0719 31.4654L20.5764 32.3936H10.4444C10.4444 32.3936 9.80386 32.2921 9.80386 31.3881L9.625 14.4498Z" fill="#5C77FD"/>
</g>
</g>
<defs>
<clipPath id="clip0_2462_10441">
<rect width="24.75" height="24.75" fill="white" transform="translate(9.625 9.625)"/>
</clipPath>
</defs>
</svg>
