<svg width="44" height="44" viewBox="0 0 44 44" fill="none" xmlns="http://www.w3.org/2000/svg">
<g id="Group 1000004814">
<circle id="Ellipse 3786" cx="22" cy="22" r="22" fill="#F7E3FE"/>
<path id="Subtract" fill-rule="evenodd" clip-rule="evenodd" d="M8.25 15.2308C8.25 12.8942 10.1442 11 12.4808 11H31.5192C33.8558 11 35.75 12.8942 35.75 15.2308V28.9808C35.75 31.3174 33.8558 33.2115 31.5192 33.2115H12.4808C10.1442 33.2115 8.25 31.3174 8.25 28.9808V15.2308ZM25.1725 18.404C25.1725 20.1564 23.7518 21.5771 21.9994 21.5771C20.2469 21.5771 18.8263 20.1564 18.8263 18.404C18.8263 16.6516 20.2469 15.2309 21.9994 15.2309C23.7518 15.2309 25.1725 16.6516 25.1725 18.404ZM16.1961 26.4117C17.1823 24.1867 19.4103 22.6345 22.0008 22.6345C24.5913 22.6345 26.8192 24.1867 27.8054 26.4117C28.3972 27.7468 27.1631 28.9807 25.7027 28.9807H18.2988C16.8385 28.9807 15.6043 27.7468 16.1961 26.4117Z" fill="#CF63F5"/>
</g>
</svg>
