<svg width="20" height="20" viewBox="0 0 20 20" fill="none" xmlns="http://www.w3.org/2000/svg">
<g id="Frame">
<path id="Vector" d="M13.5 9.49999H10.5V6.50001C10.5 6.224 10.276 6 9.99997 6C9.72396 6 9.49996 6.224 9.49996 6.50001V9.49999H6.50001C6.224 9.49999 6 9.72399 6 10C6 10.276 6.224 10.5 6.50001 10.5H9.49999V13.5C9.49999 13.7765 9.72399 14 10 14C10.276 14 10.5 13.7765 10.5 13.5V10.5H13.5C13.7765 10.5 14 10.276 14 9.99997C14 9.72396 13.7765 9.49999 13.5 9.49999Z" fill="#F760E1"/>
<circle id="Ellipse 3795" cx="10" cy="10" r="7.58333" stroke="#F760E1" stroke-width="0.833333"/>
</g>
</svg>
