<svg width="16" height="16" viewBox="0 0 16 16" fill="none" xmlns="http://www.w3.org/2000/svg">
<g id="Frame">
<path id="Vector" d="M7.5 15C7.89783 15 8.27936 14.8481 8.56066 14.5776C8.84196 14.3071 9 13.9403 9 13.5578C9 13.1753 8.84196 12.8085 8.56066 12.538C8.27936 12.2676 7.89783 12.1156 7.5 12.1156C7.10218 12.1156 6.72064 12.2676 6.43934 12.538C6.15804 12.8085 6 13.1753 6 13.5578C6 13.9403 6.15804 14.3071 6.43934 14.5776C6.72064 14.8481 7.10218 15 7.5 15ZM7.5 9.94219C7.69698 9.94219 7.89204 9.90488 8.07403 9.83241C8.25601 9.75993 8.42137 9.6537 8.56066 9.51978C8.69995 9.38586 8.81044 9.22688 8.88582 9.0519C8.9612 8.87693 9 8.68939 9 8.5C9 8.31061 8.9612 8.12307 8.88582 7.9481C8.81044 7.77312 8.69995 7.61414 8.56066 7.48022C8.42137 7.3463 8.25601 7.24007 8.07403 7.16759C7.89204 7.09512 7.69698 7.05781 7.5 7.05781C7.10218 7.05781 6.72064 7.20976 6.43934 7.48022C6.15804 7.75068 6 8.11751 6 8.5C6 8.88249 6.15804 9.24932 6.43934 9.51978C6.72064 9.79024 7.10218 9.94219 7.5 9.94219ZM7.5 4.88438C7.89783 4.88438 8.27936 4.73243 8.56066 4.46197C8.84196 4.19151 9 3.82468 9 3.44219C9 3.0597 8.84196 2.69287 8.56066 2.42241C8.27936 2.15194 7.89783 2 7.5 2C7.10218 2 6.72064 2.15194 6.43934 2.42241C6.15804 2.69287 6 3.0597 6 3.44219C6 3.82468 6.15804 4.19151 6.43934 4.46197C6.72064 4.73243 7.10218 4.88438 7.5 4.88438Z" fill="#666666"/>
</g>
</svg>
