<svg width="20" height="20" viewBox="0 0 20 20" fill="none" xmlns="http://www.w3.org/2000/svg">
<g id="Frame">
<path id="Vector" d="M14.0193 3.20493L14.0193 3.20492C13.8875 3.06487 13.8168 2.87822 13.8226 2.68601C13.8285 2.49381 13.9104 2.3118 14.0505 2.18002C14.1905 2.04824 14.3772 1.9775 14.5694 1.98334C14.7616 1.98919 14.9436 2.07115 15.0753 2.21119L14.0193 3.20493ZM14.0193 3.20493L15.6144 4.89972H14.155C11.7916 4.89972 9.90065 6.91657 9.90065 9.37472V13.1247C9.90065 13.317 9.97703 13.5014 10.113 13.6374C10.249 13.7733 10.4334 13.8497 10.6257 13.8497C10.8179 13.8497 11.0023 13.7733 11.1383 13.6374C11.2743 13.5014 11.3507 13.317 11.3507 13.1247V9.37472C11.3507 7.68915 12.6215 6.34972 14.155 6.34972H17.2923C17.9276 6.34972 18.2559 5.59046 17.8203 5.12785C17.8203 5.12785 17.8203 5.12784 17.8203 5.12784L15.0754 2.21119L14.0193 3.20493ZM16.7797 9.90374C16.6437 10.0397 16.5673 10.2241 16.5673 10.4164V15.6247C16.5673 15.8745 16.4681 16.114 16.2915 16.2906C16.1149 16.4672 15.8754 16.5664 15.6257 16.5664H4.37565C4.12591 16.5664 3.88639 16.4672 3.70979 16.2906C3.5332 16.114 3.43398 15.8745 3.43398 15.6247V4.99972C3.43398 4.74998 3.5332 4.51046 3.70979 4.33386C3.88639 4.15727 4.12591 4.05806 4.37565 4.05806H9.79232C9.9846 4.05806 10.169 3.98167 10.305 3.84571C10.4409 3.70974 10.5173 3.52534 10.5173 3.33306C10.5173 3.14077 10.4409 2.95637 10.305 2.8204C10.169 2.68444 9.9846 2.60806 9.79232 2.60806H4.37565C3.0548 2.60806 1.98398 3.67887 1.98398 4.99972V15.6247C1.98398 16.9456 3.0548 18.0164 4.37565 18.0164H15.6257C16.9465 18.0164 18.0173 16.9456 18.0173 15.6247V10.4164C18.0173 10.2241 17.9409 10.0397 17.805 9.90374C17.669 9.76777 17.4846 9.69139 17.2923 9.69139C17.1 9.69139 16.9156 9.76777 16.7797 9.90374Z" fill="white" stroke="white" stroke-width="0.2"/>
</g>
</svg>
