<svg width="41" height="40" viewBox="0 0 41 40" fill="none" xmlns="http://www.w3.org/2000/svg">
<g id="Group 48095780">
<circle id="Ellipse 2025" cx="20.5" cy="20" r="20" fill="#3C3754"/>
<g id="Group 48095779">
<mask id="mask0_2458_7245" style="mask-type:alpha" maskUnits="userSpaceOnUse" x="0" y="0" width="41" height="40">
<circle id="Ellipse 2026" cx="20.5" cy="20" r="20" fill="#322D4C"/>
</mask>
<g mask="url(#mask0_2458_7245)">
<g id="Group 48095778">
<path id="Vector 1173" d="M11.2165 22.4996C10.8714 20.9809 11.5905 15.1361 11.9932 12.4036L27.2666 11.627C29.2276 11.627 29.2858 13.6462 27.6981 23.794C26.1103 33.9418 32.329 36.0186 35.6369 35.7885C35.9245 36.8527 36.4998 39.0503 36.4998 39.3264C36.4998 39.6025 23.4411 42.9506 16.9117 44.5901C12.5109 42.8068 4.26146 38.7223 6.47051 36.6514C9.23182 34.0626 12.5109 36.1336 15.3585 34.4941C17.6366 33.1825 17.7459 30.726 17.5158 29.6618C15.5598 27.9072 11.5617 24.0183 11.2165 22.4996Z" fill="#5C77FD"/>
<path id="Vector 1172" d="M17.2564 4.20605C16.3589 4.62025 15.9045 5.9894 15.7894 6.6222C17.032 5.17251 19.0685 5.0402 19.9314 5.15526C19.7012 5.32784 19.1893 5.82833 18.9822 6.44962C23.1241 4.63751 29.5097 5.93188 30.9766 12.9215C32.1502 18.5131 29.222 22.5573 27.6113 23.8804C26.9209 23.3627 25.8337 22.1028 27.0072 21.2054C28.4742 20.0836 29.3371 15.4239 27.0072 15.5965C24.6774 15.7691 25.8854 19.5659 25.7991 22.5861C25.7129 25.6062 25.454 28.7127 22.2612 28.7127C19.0684 28.7127 14.5813 31.3877 13.6321 30.5248C10.6983 28.195 11.1297 23.7941 11.1297 21.8957C16.2209 19.307 18.8959 21.982 21.4846 21.8957C24.0734 21.8094 24.4185 19.3933 23.8145 17.4949C23.2105 15.5965 23.383 13.9569 23.9871 12.2311C22.6064 13.094 12.4241 14.4747 11.82 12.2311C10.4394 6.7085 12.5966 5.06897 17.2564 4.20605Z" fill="#212121"/>
<path id="Vector 1174" d="M13.8047 25.424C14.6856 25.7434 16.8584 25.8499 18.5028 23.7202" stroke="white" stroke-width="0.727273"/>
</g>
</g>
</g>
</g>
</svg>
