<svg width="101" height="47" viewBox="0 0 101 47" fill="none" xmlns="http://www.w3.org/2000/svg">
<g id="Union">
<mask id="path-1-inside-1_2664_8703" fill="white">
<path fill-rule="evenodd" clip-rule="evenodd" d="M0.000127346 0C0.000380722 8.60173 6.07865 15.5747 13.5766 15.5748V15.5753H0V0H0.000127346ZM0 15.5759H69.8627C78.9787 15.5759 86.3876 22.8853 86.548 31.963V31.1509C86.548 39.7173 92.5763 46.6686 100.032 46.7258H86.5506V46.7266H13.3503C5.97714 46.7266 0 40.7494 0 33.3763V15.5759Z"/>
</mask>
<path fill-rule="evenodd" clip-rule="evenodd" d="M0.000127346 0C0.000380722 8.60173 6.07865 15.5747 13.5766 15.5748V15.5753H0V0H0.000127346ZM0 15.5759H69.8627C78.9787 15.5759 86.3876 22.8853 86.548 31.963V31.1509C86.548 39.7173 92.5763 46.6686 100.032 46.7258H86.5506V46.7266H13.3503C5.97714 46.7266 0 40.7494 0 33.3763V15.5759Z" fill="url(#paint0_linear_2664_8703)"/>
<path d="M13.5766 15.5748H15.2454V13.906L13.5766 13.906L13.5766 15.5748ZM0.000127346 0L1.66891 -4.91565e-05L1.66886 -1.66879L0.000127346 -1.66879V0ZM13.5766 15.5753V17.2441H15.2454V15.5753H13.5766ZM0 15.5753H-1.66879V17.2441H0V15.5753ZM0 0V-1.66879H-1.66879V0H0ZM0 15.5759V13.9071H-1.66879V15.5759H0ZM86.548 31.963L84.8794 31.9925L88.2168 31.963H86.548ZM100.032 46.7258V48.3946L100.044 45.0571L100.032 46.7258ZM86.5506 46.7258V45.0571H84.8818V46.7258H86.5506ZM86.5506 46.7266V48.3953H88.2194V46.7266H86.5506ZM13.5766 13.906C7.20815 13.9059 1.66915 7.90266 1.66891 -4.91565e-05L-1.66866 4.91565e-05C-1.66839 9.30079 4.94915 17.2435 13.5766 17.2436L13.5766 13.906ZM15.2454 15.5753V15.5748H11.9078V15.5753H15.2454ZM0 17.2441H13.5766V13.9066H0V17.2441ZM-1.66879 0V15.5753H1.66879V0H-1.66879ZM0.000127346 -1.66879H0V1.66879H0.000127346V-1.66879ZM69.8627 13.9071H0V17.2447H69.8627V13.9071ZM88.2165 31.9335C88.04 21.9474 79.8905 13.9071 69.8627 13.9071V17.2447C78.067 17.2447 84.7351 23.8232 84.8794 31.9925L88.2165 31.9335ZM84.8792 31.1509V31.963H88.2168V31.1509H84.8792ZM100.044 45.0571C93.7106 45.0084 88.2168 39.0201 88.2168 31.1509H84.8792C84.8792 40.4146 91.4419 48.3287 100.019 48.3946L100.044 45.0571ZM86.5506 48.3946H100.032V45.0571H86.5506V48.3946ZM88.2194 46.7266V46.7258H84.8818V46.7266H88.2194ZM13.3503 48.3953H86.5506V45.0578H13.3503V48.3953ZM-1.66879 33.3763C-1.66879 41.6711 5.05549 48.3953 13.3503 48.3953V45.0578C6.89878 45.0578 1.66879 39.8278 1.66879 33.3763H-1.66879ZM-1.66879 15.5759V33.3763H1.66879V15.5759H-1.66879Z" fill="#F3AB3F" mask="url(#path-1-inside-1_2664_8703)"/>
</g>
<defs>
<linearGradient id="paint0_linear_2664_8703" x1="100.032" y1="23.3633" x2="-6.52132e-07" y2="23.3633" gradientUnits="userSpaceOnUse">
<stop stop-color="#E41B27"/>
<stop offset="1" stop-color="#F5AE43"/>
</linearGradient>
</defs>
</svg>
