<svg width="32" height="32" viewBox="0 0 32 32" fill="none" xmlns="http://www.w3.org/2000/svg">
<g id="Group 1000005153">
<rect id="Rectangle 34626106" width="32" height="32" rx="8" fill="#F760E1" fill-opacity="0.2"/>
<g id="Frame">
<path id="Vector" d="M15.2619 8.48615H12.6377C12.4563 8.48615 12.317 8.44403 12.2198 8.3598C12.1226 8.27557 12.0546 8.16866 12.0157 8.03907C11.9768 7.90948 11.9574 7.7637 11.9574 7.60171C11.9574 7.43973 11.9704 7.28746 11.9963 7.14491C12.0092 7.00236 12.0352 6.84686 12.074 6.67839C12.1129 6.50993 12.168 6.36738 12.2393 6.25075C12.3105 6.13412 12.4045 6.05637 12.5211 6.01749C12.6377 5.97862 12.7803 6.01101 12.9488 6.11469C13.1431 6.23131 13.3634 6.35766 13.6097 6.49373C13.8559 6.6298 14.0956 6.76587 14.3289 6.90193C14.5621 7.038 14.7792 7.16111 14.98 7.27126C15.1809 7.38141 15.3332 7.46888 15.4368 7.53368C15.5664 7.62439 15.6636 7.72482 15.7284 7.83497C15.7932 7.94512 15.8191 8.04879 15.8062 8.14598C15.7932 8.24317 15.7414 8.32416 15.6507 8.38896C15.56 8.45375 15.4304 8.48615 15.2619 8.48615ZM16.7781 8.46671H19.3828C19.5642 8.46671 19.7035 8.4246 19.8007 8.34036C19.8979 8.25613 19.966 8.14922 20.0048 8.01963C20.0437 7.89004 20.0631 7.74426 20.0631 7.58227C20.0631 7.42029 20.0567 7.26802 20.0437 7.12547C20.0178 6.98293 19.9886 6.83066 19.9562 6.66868C19.9238 6.50669 19.872 6.36738 19.8007 6.25075C19.7295 6.13412 19.6355 6.05637 19.5189 6.01749C19.4022 5.97862 19.2597 6.00454 19.0912 6.09525C18.8969 6.21188 18.6766 6.33823 18.4303 6.47429C18.1841 6.61036 17.9411 6.74643 17.7014 6.8825C17.4617 7.01856 17.2414 7.14167 17.0405 7.25182C16.8396 7.36197 16.6939 7.44944 16.6031 7.51424C16.4606 7.60495 16.3569 7.70538 16.2921 7.81553C16.2273 7.92568 16.2014 8.02935 16.2144 8.12654C16.2273 8.22373 16.2792 8.30473 16.3699 8.36952C16.4606 8.43431 16.5967 8.46671 16.7781 8.46671ZM14.9898 9.74964H9.35268C8.938 9.74964 8.6691 9.81767 8.54599 9.95374C8.42288 10.0898 8.36133 10.3069 8.36133 10.6049V12.3155C8.36133 12.6395 8.42936 12.8792 8.56543 13.0347C8.7015 13.1902 8.97039 13.268 9.37212 13.268H14.9898V9.74964ZM17.1085 9.74964H22.6679C23.0826 9.74964 23.3644 9.83063 23.5134 9.99261C23.6625 10.1546 23.737 10.3846 23.737 10.6827V12.3544C23.737 12.6654 23.6689 12.8954 23.5329 13.0444C23.3968 13.1934 23.1279 13.268 22.7262 13.268H17.1085V9.74964ZM14.9898 14.2982H9.02223V17.4861V18.7495V19.9353V20.9461V21.6458C9.02223 22.3067 9.21013 22.8186 9.58594 23.1815C9.96174 23.5443 10.5449 23.7257 11.3354 23.7257H14.9898V14.2982ZM17.1085 14.2982H23.0566V21.5875C23.0437 22.2484 22.8558 22.77 22.4929 23.1523C22.1301 23.5346 21.5534 23.7257 20.7629 23.7257H17.1085V14.2982Z" fill="#F760E1"/>
</g>
</g>
</svg>
