<svg width="32" height="32" viewBox="0 0 32 32" fill="none" xmlns="http://www.w3.org/2000/svg">
<g id="Group 1000005154">
<rect id="Rectangle 34626106" width="32" height="32" rx="8" fill="#FDDFF9"/>
<g id="Frame" clip-path="url(#clip0_2610_5433)">
<path id="Vector" d="M24 6.8457H10.4004C9.36133 6.8457 8.52148 7.6875 8.52148 8.72461V9.31445H8C6.96094 9.31445 6.12109 10.1562 6.12109 11.1934V20.5078C6.12109 21.5469 6.96289 22.3867 8 22.3867H12.4023C12.4355 22.4375 12.4746 22.4863 12.5215 22.5332L14.9121 24.9023C15.25 25.2363 15.7949 25.2363 16.1309 24.9023L18.5215 22.5332C18.5684 22.4863 18.6074 22.4375 18.6406 22.3867H21.5957C22.6348 22.3867 23.4746 21.5449 23.4746 20.5078V19.918H23.9961C25.0352 19.918 25.875 19.0762 25.875 18.0391V8.72461C25.8789 7.6875 25.0391 6.8457 24 6.8457ZM14.5352 18.8145H10.4551V12.9063H14.4844V13.957H11.6875V15.248H14.3203V16.3066H11.6875V17.7637H14.6582L14.5352 18.8145ZM19.2773 18.8145H18.1191V16.1172C18.1191 15.8145 18.0605 15.6074 17.9453 15.4961C17.8301 15.3867 17.6758 15.3301 17.4824 15.3301C17.334 15.3301 17.2051 15.3516 17.0977 15.3965C16.9902 15.4414 16.8887 15.5039 16.7949 15.5859C16.7168 15.6641 16.6523 15.7559 16.5996 15.8633C16.5469 15.9707 16.5215 16.0879 16.5215 16.2148V18.8125H15.3633V14.4941H16.4883V15.0898C16.6602 14.8359 16.8613 14.6504 17.0957 14.5352C17.3301 14.4199 17.5742 14.3613 17.8281 14.3613C18.3184 14.3613 18.6836 14.4902 18.9199 14.7461C19.1562 15.002 19.2754 15.4062 19.2754 15.959V18.8145H19.2773ZM24.3164 18.0391C24.3164 18.2148 24.1738 18.3555 24 18.3555H23.4785V11.1934C23.4785 10.1543 22.6367 9.31445 21.5996 9.31445H10.084V8.72461C10.084 8.54883 10.2266 8.4082 10.4004 8.4082H24C24.1758 8.4082 24.3164 8.55078 24.3164 8.72461V18.0391Z" fill="#F760E1"/>
</g>
</g>
<defs>
<clipPath id="clip0_2610_5433">
<rect width="20" height="20" fill="white" transform="translate(6 6)"/>
</clipPath>
</defs>
</svg>
