<svg width="32" height="32" viewBox="0 0 32 32" fill="none" xmlns="http://www.w3.org/2000/svg">
<g id="Group 1000005155">
<rect id="Rectangle 34626106" width="32" height="32" rx="8" fill="#FDDFF9"/>
<g id="Frame">
<path id="Union" fill-rule="evenodd" clip-rule="evenodd" d="M19.1241 10.4197V18.2043C19.1241 18.9875 18.4876 19.624 17.7044 19.624H13.2395L10.6983 21.4696C10.5752 21.5595 10.4285 21.6045 10.2818 21.6045C10.173 21.6045 10.0618 21.5784 9.96005 21.5264C9.72107 21.4057 9.572 21.162 9.572 20.8946V19.6264H8.41969C7.63649 19.6264 7 18.9899 7 18.2067V10.4197C7 9.63649 7.63649 9 8.41969 9H17.7044C18.4876 9 19.1241 9.63649 19.1241 10.4197ZM19.935 12.0996H23.7374C24.5206 12.0996 25.1571 12.7361 25.1571 13.5193V21.337C25.1571 22.1202 24.5206 22.7567 23.7374 22.7567H22.1142V23.8617C22.1142 24.1173 21.9841 24.361 21.7617 24.4887C21.6505 24.555 21.5274 24.5858 21.4044 24.5858C21.2601 24.5858 21.1157 24.5408 20.9927 24.4533L18.4609 22.655H16.3337C15.5506 22.655 14.9141 22.0185 14.9141 21.2353V20.2959H18.9886C19.5115 20.2959 19.935 19.8724 19.935 19.3495V12.0996Z" fill="#F760E1"/>
</g>
</g>
</svg>
