<svg width="104" height="44" viewBox="0 0 104 44" fill="none" xmlns="http://www.w3.org/2000/svg">
<g id="Group 1000005212">
<path id="Rectangle 34626126" d="M0 17.649C0 7.90174 7.90174 0 17.649 0H86.2803C96.0666 0 104 7.93339 104 17.7197C104 27.3738 96.1738 35.2 86.5197 35.2H57.7898C56.1182 35.2 54.4683 35.5779 52.9635 36.3056L41.9187 41.6459C39.6662 42.735 37.05 41.0941 37.05 38.5921C37.05 36.7187 35.5313 35.2 33.6579 35.2H17.551C7.85784 35.2 0 27.3422 0 17.649Z" fill="url(#paint0_linear_2610_5567)"/>
<path id="Free chats" d="M14.4401 23L16.0081 11.8H22.6481L22.3361 14.008H17.9041L17.6401 15.896H21.3041L21.0001 18.104H17.3361L16.6481 23H14.4401ZM22.0231 23L23.1351 15H25.3431L25.2631 15.592C25.5724 15.336 25.9164 15.136 26.2951 14.992C26.6737 14.848 27.0631 14.776 27.4631 14.776C27.7564 14.776 28.0444 14.8187 28.3271 14.904L27.1431 17.136C26.9671 17.056 26.7751 17.016 26.5671 17.016C26.2897 17.016 26.0284 17.0827 25.7831 17.216C25.5377 17.3493 25.3324 17.5307 25.1671 17.76C25.0017 17.984 24.9004 18.2373 24.8631 18.52L24.2311 23H22.0231ZM31.3749 23.208C30.6389 23.208 29.9936 23.0187 29.4389 22.64C28.8896 22.2613 28.4789 21.752 28.2069 21.112C27.9403 20.472 27.8603 19.7653 27.9669 18.992C28.0469 18.4107 28.2256 17.8667 28.5029 17.36C28.7856 16.848 29.1376 16.4 29.5589 16.016C29.9803 15.6267 30.4469 15.3227 30.9589 15.104C31.4763 14.8853 32.0096 14.776 32.5589 14.776C33.1936 14.776 33.7536 14.912 34.2389 15.184C34.7243 15.456 35.1163 15.8267 35.4149 16.296C35.7189 16.7653 35.9056 17.296 35.9749 17.888C36.0496 18.48 35.9909 19.096 35.7989 19.736H30.2469C30.2843 19.9707 30.3616 20.184 30.4789 20.376C30.6016 20.5627 30.7616 20.712 30.9589 20.824C31.1616 20.936 31.4043 20.9947 31.6869 21C31.9643 21.0053 32.2283 20.9413 32.4789 20.808C32.7349 20.6747 32.9616 20.496 33.1589 20.272L35.3349 20.792C34.9136 21.5013 34.3483 22.0827 33.6389 22.536C32.9296 22.984 32.1749 23.208 31.3749 23.208ZM30.3909 18.104H33.7989C33.7669 17.8373 33.6816 17.5973 33.5429 17.384C33.4043 17.1707 33.2283 17.0027 33.0149 16.88C32.8016 16.7573 32.5616 16.696 32.2949 16.696C32.0283 16.696 31.7696 16.7573 31.5189 16.88C31.2736 17.0027 31.0523 17.1707 30.8549 17.384C30.6629 17.592 30.5083 17.832 30.3909 18.104ZM40.3718 23.208C39.6358 23.208 38.9905 23.0187 38.4358 22.64C37.8865 22.2613 37.4758 21.752 37.2038 21.112C36.9371 20.472 36.8571 19.7653 36.9638 18.992C37.0438 18.4107 37.2225 17.8667 37.4998 17.36C37.7825 16.848 38.1345 16.4 38.5558 16.016C38.9771 15.6267 39.4438 15.3227 39.9558 15.104C40.4731 14.8853 41.0065 14.776 41.5558 14.776C42.1905 14.776 42.7505 14.912 43.2358 15.184C43.7211 15.456 44.1131 15.8267 44.4118 16.296C44.7158 16.7653 44.9025 17.296 44.9718 17.888C45.0465 18.48 44.9878 19.096 44.7958 19.736H39.2438C39.2811 19.9707 39.3585 20.184 39.4758 20.376C39.5985 20.5627 39.7585 20.712 39.9558 20.824C40.1585 20.936 40.4011 20.9947 40.6838 21C40.9611 21.0053 41.2251 20.9413 41.4758 20.808C41.7318 20.6747 41.9585 20.496 42.1558 20.272L44.3318 20.792C43.9105 21.5013 43.3451 22.0827 42.6358 22.536C41.9265 22.984 41.1718 23.208 40.3718 23.208ZM39.3878 18.104H42.7958C42.7638 17.8373 42.6785 17.5973 42.5398 17.384C42.4011 17.1707 42.2251 17.0027 42.0118 16.88C41.7985 16.7573 41.5585 16.696 41.2918 16.696C41.0251 16.696 40.7665 16.7573 40.5158 16.88C40.2705 17.0027 40.0491 17.1707 39.8518 17.384C39.6598 17.592 39.5051 17.832 39.3878 18.104ZM55.1687 20.472L57.0007 21.544C56.5634 22.0453 56.046 22.448 55.4487 22.752C54.8514 23.056 54.2247 23.208 53.5687 23.208C52.8327 23.208 52.1874 23.0187 51.6327 22.64C51.0834 22.2613 50.6727 21.7547 50.4007 21.12C50.134 20.48 50.054 19.7733 50.1607 19C50.2407 18.4133 50.4194 17.8667 50.6967 17.36C50.9794 16.848 51.3314 16.4 51.7527 16.016C52.174 15.6267 52.6407 15.3227 53.1527 15.104C53.67 14.8853 54.2034 14.776 54.7527 14.776C55.4087 14.776 55.9927 14.928 56.5047 15.232C57.022 15.536 57.4274 15.944 57.7207 16.456L55.5767 17.528C55.438 17.352 55.27 17.2187 55.0727 17.128C54.8754 17.032 54.6647 16.984 54.4407 16.984C54.1047 16.984 53.7874 17.0773 53.4887 17.264C53.1954 17.4507 52.9474 17.6987 52.7447 18.008C52.5474 18.312 52.422 18.6427 52.3687 19C52.3207 19.352 52.3527 19.68 52.4647 19.984C52.5767 20.288 52.7554 20.5333 53.0007 20.72C53.246 20.9067 53.5394 21 53.8807 21C54.11 21 54.334 20.952 54.5527 20.856C54.7767 20.76 54.982 20.632 55.1687 20.472ZM66.2841 17.912L65.5801 23H63.3721L64.0041 18.52C64.0414 18.2373 64.0067 17.984 63.9001 17.76C63.7987 17.5307 63.6441 17.3493 63.4361 17.216C63.2281 17.0827 62.9827 17.016 62.7001 17.016C62.4227 17.016 62.1614 17.0827 61.9161 17.216C61.6707 17.3493 61.4654 17.5307 61.3001 17.76C61.1347 17.984 61.0334 18.2373 60.9961 18.52L60.3641 23H58.1561L59.8281 11H62.0361L61.3961 15.592C61.7054 15.336 62.0494 15.136 62.4281 14.992C62.8067 14.848 63.1961 14.776 63.5961 14.776C64.1774 14.776 64.6841 14.9173 65.1161 15.2C65.5481 15.4827 65.8707 15.8613 66.0841 16.336C66.3027 16.8053 66.3694 17.3307 66.2841 17.912ZM74.2227 15H76.4307L75.3107 23H73.0947L73.1027 22.168C72.852 22.4773 72.5507 22.728 72.1987 22.92C71.8467 23.112 71.452 23.208 71.0147 23.208C70.4174 23.208 69.8734 23.096 69.3827 22.872C68.8974 22.648 68.4867 22.3387 68.1507 21.944C67.8147 21.5493 67.572 21.0933 67.4227 20.576C67.2734 20.0533 67.2414 19.4933 67.3267 18.896C67.4067 18.3253 67.5854 17.792 67.8627 17.296C68.1454 16.8 68.5 16.3627 68.9267 15.984C69.3534 15.6053 69.828 15.3093 70.3507 15.096C70.8787 14.8827 71.428 14.776 71.9987 14.776C72.4894 14.776 72.916 14.88 73.2787 15.088C73.6414 15.296 73.948 15.56 74.1987 15.88L74.2227 15ZM71.2467 21.088C71.6147 21.088 71.9587 20.9947 72.2787 20.808C72.5987 20.6213 72.8654 20.3707 73.0787 20.056C73.2974 19.736 73.4334 19.384 73.4867 19C73.54 18.6107 73.5027 18.2587 73.3747 17.944C73.2467 17.6293 73.0494 17.3787 72.7827 17.192C72.516 17.0053 72.2014 16.912 71.8387 16.912C71.4707 16.912 71.124 17.0053 70.7987 17.192C70.4734 17.3787 70.2014 17.632 69.9827 17.952C69.764 18.2667 69.628 18.616 69.5747 19C69.5214 19.384 69.5614 19.736 69.6947 20.056C69.828 20.3707 70.0307 20.6213 70.3027 20.808C70.5747 20.9947 70.8894 21.088 71.2467 21.088ZM82.2706 17.208H80.8226L80.0146 23H77.8066L78.6146 17.208H77.5186L77.8226 15H78.9266L79.2786 12.488H81.4866L81.1346 15H82.5746L82.2706 17.208ZM85.2472 23.144C84.8419 23.112 84.4605 23.0267 84.1032 22.888C83.7459 22.744 83.4339 22.552 83.1672 22.312C82.9059 22.0667 82.7165 21.7733 82.5992 21.432L84.5672 20.632C84.6152 20.7173 84.6899 20.8107 84.7912 20.912C84.8925 21.008 85.0232 21.0933 85.1832 21.168C85.3485 21.2427 85.5405 21.28 85.7592 21.28C85.9245 21.28 86.0872 21.2613 86.2472 21.224C86.4072 21.1813 86.5405 21.1147 86.6472 21.024C86.7592 20.928 86.8259 20.8027 86.8472 20.648C86.8739 20.4773 86.8312 20.3467 86.7192 20.256C86.6072 20.1653 86.4685 20.0987 86.3032 20.056C86.1379 20.008 85.9752 19.968 85.8152 19.936C85.3405 19.8507 84.9005 19.6987 84.4952 19.48C84.0952 19.256 83.7832 18.968 83.5592 18.616C83.3352 18.264 83.2579 17.8427 83.3272 17.352C83.4072 16.8133 83.6125 16.3493 83.9432 15.96C84.2792 15.5653 84.6899 15.2613 85.1752 15.048C85.6605 14.8347 86.1672 14.728 86.6952 14.728C87.3192 14.728 87.8765 14.8587 88.3672 15.12C88.8632 15.3813 89.2445 15.7493 89.5112 16.224L87.6232 17.256C87.5645 17.1547 87.4872 17.0587 87.3912 16.968C87.2952 16.872 87.1805 16.792 87.0472 16.728C86.9192 16.6587 86.7752 16.6187 86.6152 16.608C86.4072 16.592 86.2152 16.6053 86.0392 16.648C85.8632 16.6853 85.7192 16.7573 85.6072 16.864C85.4952 16.9707 85.4259 17.1147 85.3992 17.296C85.3725 17.472 85.4285 17.6027 85.5672 17.688C85.7112 17.768 85.8819 17.8293 86.0792 17.872C86.2819 17.9093 86.4579 17.9547 86.6072 18.008C87.0499 18.1573 87.4579 18.3493 87.8312 18.584C88.2045 18.8133 88.4925 19.096 88.6952 19.432C88.9032 19.768 88.9672 20.1627 88.8872 20.616C88.8125 21.144 88.5885 21.608 88.2152 22.008C87.8472 22.4027 87.3992 22.704 86.8712 22.912C86.3432 23.1147 85.8019 23.192 85.2472 23.144Z" fill="white"/>
</g>
<defs>
<linearGradient id="paint0_linear_2610_5567" x1="100" y1="8.44052e-06" x2="26" y2="39.5" gradientUnits="userSpaceOnUse">
<stop stop-color="#B946F5"/>
<stop offset="1" stop-color="#F66B6A"/>
</linearGradient>
</defs>
</svg>
