<svg width="14" height="14" viewBox="0 0 14 14" fill="none" xmlns="http://www.w3.org/2000/svg">
<g id="Frame">
<path id="Vector" d="M6.04387 1.1751C6.6642 0.968976 7.33455 0.968976 7.95487 1.1751C8.5735 1.38073 9.05912 1.86723 9.5465 2.55148C10.033 3.2331 10.5702 4.18335 11.2615 5.40923L11.2895 5.45735C11.9816 6.68235 12.5189 7.6326 12.854 8.40348C13.19 9.17873 13.358 9.84723 13.2241 10.4895C13.0909 11.1349 12.7589 11.7224 12.2747 12.1695C11.7917 12.6131 11.1355 12.7995 10.3086 12.8896C9.487 12.9789 8.41162 12.9789 7.02737 12.9789H6.97137C5.58712 12.9789 4.51262 12.9789 3.69012 12.8896C2.86325 12.8004 2.207 12.6131 1.72487 12.1695C1.24037 11.7225 0.908055 11.135 0.774623 10.4895C0.640748 9.84723 0.808748 9.17873 1.14475 8.40348C1.47987 7.63348 2.01712 6.68235 2.70925 5.45735L2.73637 5.40923C3.42937 4.18423 3.96575 3.2331 4.45225 2.55148C4.93962 1.86723 5.42525 1.38073 6.04387 1.1751ZM6.41575 9.91635C6.41575 10.2384 6.6765 10.5 6.99675 10.5H7.002C7.07849 10.4999 7.1542 10.4847 7.22481 10.4553C7.29542 10.4259 7.35954 10.3828 7.4135 10.3286C7.46746 10.2744 7.51021 10.2101 7.53929 10.1394C7.56838 10.0686 7.58323 9.99284 7.583 9.91635C7.58311 9.83994 7.56818 9.76425 7.53904 9.69361C7.50991 9.62297 7.46714 9.55876 7.41319 9.50465C7.35924 9.45053 7.29516 9.40758 7.22461 9.37823C7.15405 9.34888 7.07841 9.33372 7.002 9.3336H6.99675C6.92034 9.33372 6.84469 9.34888 6.77414 9.37823C6.70359 9.40758 6.63951 9.45053 6.58556 9.50465C6.53161 9.55876 6.48884 9.62297 6.45971 9.69361C6.43057 9.76425 6.41563 9.83994 6.41575 9.91635ZM6.41575 7.5836C6.41575 7.73839 6.47724 7.88684 6.58669 7.99629C6.69614 8.10574 6.84459 8.16723 6.99937 8.16723C7.15416 8.16723 7.30261 8.10574 7.41206 7.99629C7.52151 7.88684 7.583 7.73839 7.583 7.5836V5.24998C7.583 5.09519 7.52151 4.94674 7.41206 4.83729C7.30261 4.72784 7.15416 4.66635 6.99937 4.66635C6.84459 4.66635 6.69614 4.72784 6.58669 4.83729C6.47724 4.94674 6.41575 5.09519 6.41575 5.24998V7.5836Z" fill="#B4B4B4"/>
</g>
</svg>
