<svg width="40" height="40" viewBox="0 0 40 40" fill="none" xmlns="http://www.w3.org/2000/svg">
<g id="icon">
<path id="Vector" d="M16.0851 21.8731L24.0384 15.2281L13.5234 19.9148L7.74173 15.4948C7.61473 15.3978 7.51832 15.2663 7.46397 15.116C7.40962 14.9657 7.39964 14.8029 7.43521 14.6471C7.47078 14.4913 7.5504 14.349 7.66459 14.2372C7.77878 14.1254 7.92271 14.0488 8.07923 14.0165L31.5109 9.18647C31.6481 9.15828 31.7903 9.16516 31.9241 9.20645C32.058 9.24775 32.1793 9.32213 32.2768 9.42272C32.3744 9.52332 32.445 9.64687 32.4821 9.78197C32.5192 9.91706 32.5217 10.0593 32.4892 10.1956L27.8976 29.429C27.8654 29.5641 27.8 29.689 27.7073 29.7924C27.6145 29.8958 27.4974 29.9744 27.3666 30.021C27.2358 30.0676 27.0954 30.0808 26.9581 30.0593C26.8209 30.0379 26.6912 29.9825 26.5809 29.8981L16.0851 21.8731V21.8731ZM13.9017 28.5148L15.0476 23.1515L19.5392 26.619L15.1617 29.3923C15.0231 29.4801 14.8616 29.5251 14.6975 29.5215C14.5335 29.5179 14.3741 29.4659 14.2394 29.3721C14.1048 29.2783 14.0008 29.1468 13.9406 28.9942C13.8804 28.8415 13.8666 28.6744 13.9009 28.514L13.9017 28.5148Z" fill="#6D557E"/>
</g>
</svg>
