<svg width="41" height="40" viewBox="0 0 41 40" fill="none" xmlns="http://www.w3.org/2000/svg">
<g id="Group 48095780">
<circle id="Ellipse 2025" cx="20.5" cy="20" r="20" fill="#3C3754"/>
<g id="Group 48095779">
<mask id="mask0_2458_7275" style="mask-type:alpha" maskUnits="userSpaceOnUse" x="0" y="0" width="41" height="40">
<circle id="Ellipse 2026" cx="20.5" cy="20" r="20" fill="#251650"/>
</mask>
<g mask="url(#mask0_2458_7275)">
</g>
<mask id="mask1_2458_7275" style="mask-type:alpha" maskUnits="userSpaceOnUse" x="0" y="0" width="41" height="40">
<circle id="Ellipse 2027" cx="20.5" cy="20" r="20" fill="#251650"/>
</mask>
<g mask="url(#mask1_2458_7275)">
<path id="Vector" d="M2 30.9924C2 30.9924 7.69458 32.3412 15.3864 21.8457C9.17376 18.2163 9.09061 18.2616 9.29741 16.1812C9.39591 15.1878 14.5238 16.3483 18.9613 18.7659C23.3989 21.1836 8.11415 12.4534 11.368 6.17555C12.6498 5.2929 11.7624 7.94128 13.636 9.6086L15.5096 11.2759C15.5096 11.2759 14.4249 8.43117 16.2 8.43117C17.9751 8.43117 17.4817 11.3107 17.7777 12.3723C18.0736 13.434 19.3089 15.4937 19.7758 15.3957C20.2427 15.2977 21.3274 9.70658 23.3 9.80456C25.2721 9.90254 20.7855 15.3957 21.4016 15.788C22.0178 16.1803 21.1304 18.6141 23.1025 18.5255C25.0746 18.4368 34.3774 26.9541 35.133 27.2646C36.2421 27.7201 36.6122 29.0303 34.2457 30.5017C31.8791 31.9731 22.9056 32.3853 21.8208 31.0514C20.736 29.717 19.5528 41.39 14.6223 41.9783C9.69183 42.567 2 30.9924 2 30.9924Z" fill="#D4872D"/>
<path id="Vector 1174" d="M29 28.9066C29.5625 29.0766 30.95 29.1333 32 28" stroke="white" stroke-width="0.727273"/>
</g>
</g>
</g>
</svg>
