<svg width="16" height="16" viewBox="0 0 16 16" fill="none" xmlns="http://www.w3.org/2000/svg">
<g id="Frame">
<path id="Vector" d="M13.8728 8.97715C13.9771 9.13032 14.0196 9.31756 13.9916 9.50099C13.9637 9.68442 13.8674 9.85034 13.7223 9.96519L13.6318 10.0268L9.45871 12.4451L11.5013 13.6305C11.6627 13.7219 11.7834 13.8716 11.8388 14.0492C11.8942 14.2267 11.8802 14.4188 11.7996 14.5864C11.7191 14.754 11.578 14.8844 11.405 14.9512C11.2321 15.018 11.0404 15.0162 10.8688 14.946L10.7712 14.897L7.99989 13.2904L5.22994 14.897C5.07072 14.9887 4.88291 15.0167 4.70404 14.9754C4.52517 14.9341 4.36842 14.8264 4.26511 14.6741C4.1618 14.5217 4.11955 14.3358 4.14679 14.1535C4.17403 13.9711 4.26876 13.8059 4.41205 13.6907L4.50123 13.6305L6.54246 12.4451L2.37082 10.0268C2.20943 9.93538 2.08877 9.78567 2.03336 9.6081C1.97795 9.43054 1.99195 9.23843 2.07253 9.07087C2.1531 8.9033 2.29419 8.77285 2.46711 8.70605C2.64003 8.63924 2.83179 8.6411 3.00339 8.71124L3.09953 8.75743L7.99989 11.5998L12.903 8.75883C13.0623 8.66478 13.2512 8.63501 13.4315 8.67554C13.6118 8.71608 13.77 8.82388 13.8742 8.97715H13.8728ZM8.00268 1C8.59188 0.999967 9.17532 1.1165 9.71968 1.34296C10.264 1.56941 10.7587 1.90134 11.1753 2.3198C11.5919 2.73826 11.9224 3.23505 12.1479 3.78181C12.3734 4.32857 12.4895 4.91458 12.4895 5.50639C12.4895 6.0982 12.3734 6.68421 12.1479 7.23097C11.9224 7.77772 11.5919 8.27451 11.1753 8.69297C10.7587 9.11143 10.264 9.44337 9.71968 9.66982C9.17532 9.89627 8.59188 10.0128 8.00268 10.0128C6.81282 10.0127 5.67171 9.5379 4.83037 8.6928C3.98904 7.84769 3.51638 6.70151 3.51638 5.50639C3.51638 4.31126 3.98904 3.16508 4.83037 2.31998C5.67171 1.47487 6.81282 1.00007 8.00268 1ZM8.00268 2.46528C7.59951 2.45659 7.19868 2.52885 6.82369 2.67781C6.4487 2.82677 6.10709 3.04944 5.8189 3.33276C5.53072 3.61608 5.30175 3.95434 5.14544 4.32771C4.98912 4.70109 4.9086 5.10205 4.9086 5.50709C4.9086 5.91213 4.98912 6.31309 5.14544 6.68646C5.30175 7.05983 5.53072 7.3981 5.8189 7.68142C6.10709 7.96473 6.4487 8.1874 6.82369 8.33637C7.19868 8.48533 7.59951 8.55759 8.00268 8.5489C8.79462 8.53184 9.54839 8.20387 10.1025 7.63528C10.6565 7.06668 10.9668 6.30271 10.9668 5.50709C10.9668 4.71146 10.6565 3.94749 10.1025 3.3789C9.54839 2.81031 8.79462 2.48234 8.00268 2.46528Z" fill="url(#paint0_linear_2669_12510)"/>
</g>
<defs>
<linearGradient id="paint0_linear_2669_12510" x1="5.21429" y1="2.625" x2="12.6222" y2="12.7164" gradientUnits="userSpaceOnUse">
<stop stop-color="#A564FF"/>
<stop offset="1" stop-color="#5EA1F9"/>
</linearGradient>
</defs>
</svg>
