<svg width="16" height="16" viewBox="0 0 16 16" fill="none" xmlns="http://www.w3.org/2000/svg">
<g id="Frame 1000004858">
<path id="Vector" d="M2.95 6.85981C2.95 9.41968 4.96418 11.5201 7.53333 11.7489V12.3176H6C5.85458 12.3176 5.71484 12.3737 5.6116 12.4741C5.5083 12.5745 5.45 12.711 5.45 12.8536C5.45 12.9962 5.5083 13.1327 5.6116 13.2331C5.71484 13.3334 5.85458 13.3896 6 13.3896H7.53333V14.514C7.53333 14.6566 7.59164 14.7931 7.69493 14.8935C7.79818 14.9939 7.93792 15.05 8.08333 15.05C8.22875 15.05 8.36849 14.9939 8.47174 14.8935C8.57503 14.7931 8.63333 14.6566 8.63333 14.514V13.3896H10C10.1454 13.3896 10.2852 13.3334 10.3884 13.2331C10.4917 13.1327 10.55 12.9962 10.55 12.8536C10.55 12.711 10.4917 12.5745 10.3884 12.4741C10.2852 12.3737 10.1454 12.3176 10 12.3176H8.63333V11.7314C11.1224 11.4285 13.05 9.36407 13.05 6.85981C13.05 4.14679 10.7878 1.95 8 1.95C5.21224 1.95 2.95 4.14679 2.95 6.85981ZM11.95 6.85981C11.95 8.9781 10.1829 10.6977 8 10.6977C5.8171 10.6977 4.05 8.9781 4.05 6.85981C4.05 4.74153 5.8171 3.02196 8 3.02196C10.1829 3.02196 11.95 4.74153 11.95 6.85981Z" fill="url(#paint0_linear_2669_12429)" stroke="url(#paint1_linear_2669_12429)" stroke-width="0.1"/>
</g>
<defs>
<linearGradient id="paint0_linear_2669_12429" x1="5.67857" y1="3.50893" x2="12.7456" y2="12.1485" gradientUnits="userSpaceOnUse">
<stop stop-color="#A564FF"/>
<stop offset="1" stop-color="#5EA1F9"/>
</linearGradient>
<linearGradient id="paint1_linear_2669_12429" x1="5.67857" y1="3.50893" x2="12.7456" y2="12.1485" gradientUnits="userSpaceOnUse">
<stop stop-color="#A564FF"/>
<stop offset="1" stop-color="#5EA1F9"/>
</linearGradient>
</defs>
</svg>
