<svg width="28" height="26" viewBox="0 0 28 26" fill="current" xmlns="http://www.w3.org/2000/svg">
<path id="Star 14" opacity="0.3"  d="M18.5429 7.22774L16.1578 2.39502C15.2751 0.606578 12.7249 0.606582 11.8422 2.39502L9.45714 7.22774C9.36155 7.42143 9.17677 7.55568 8.96302 7.58674L3.62979 8.3617C1.65613 8.64849 0.868066 11.0739 2.29622 12.466L6.15538 16.2278C6.31004 16.3785 6.38062 16.5958 6.34411 16.8086L5.43309 22.1203C5.09595 24.086 7.15915 25.585 8.92444 24.6569L13.6946 22.1491C13.8858 22.0486 14.1142 22.0486 14.3054 22.1491L19.0756 24.6569C20.8409 25.585 22.9041 24.086 22.5669 22.1203L21.6559 16.8086C21.6194 16.5958 21.69 16.3785 21.8446 16.2278L25.7038 12.466C27.1319 11.0739 26.3439 8.64849 24.3702 8.3617L19.037 7.58674C18.8232 7.55568 18.6385 7.42143 18.5429 7.22774Z" stroke="black" stroke-width="1.75" />
</svg>
