<svg width="20" height="20" viewBox="0 0 20 20" fill="none" xmlns="http://www.w3.org/2000/svg">
<path id="Star 5" d="M13.4079 6.21048L11.4572 2.25794C10.8611 1.05016 9.13888 1.05016 8.5428 2.25794L6.59211 6.21048C6.5739 6.24737 6.5387 6.27294 6.49799 6.27886L2.1361 6.91268C0.803246 7.10635 0.271042 8.74431 1.23551 9.68443L4.3918 12.7611C4.42126 12.7898 4.4347 12.8311 4.42775 12.8717L3.68265 17.216C3.45497 18.5434 4.8483 19.5557 6.04044 18.929L9.94183 16.8779C9.97825 16.8588 10.0218 16.8588 10.0582 16.8779L13.9596 18.929C15.1517 19.5557 16.545 18.5434 16.3174 17.216L15.5723 12.8717C15.5653 12.8311 15.5787 12.7898 15.6082 12.7611L18.7645 9.68443C19.729 8.74431 19.1968 7.10635 17.8639 6.91268L13.502 6.27886C13.4613 6.27294 13.4261 6.24737 13.4079 6.21048Z" fill="#F2AE41" stroke="#F2AE41" stroke-width="1.5"/>
</svg>
