<svg width="16" height="16" viewBox="0 0 16 16" fill="none" xmlns="http://www.w3.org/2000/svg">
<g id="Frame 1000004891">
<path id="Vector" d="M12.0174 1.0394C11.722 0.959922 11.4073 1.0017 11.1424 1.15555C10.8776 1.3094 10.6844 1.56273 10.6052 1.85985L9.92348 4.41794C9.89112 4.41458 9.85861 4.41295 9.82609 4.41304H7.69991L8.21974 2.46049C8.29071 2.16607 8.24438 1.85541 8.09066 1.59489C7.93694 1.33438 7.68802 1.14467 7.39709 1.06631C7.10616 0.987954 6.7963 1.02716 6.53373 1.17556C6.27115 1.32395 6.0767 1.56976 5.99191 1.86046L5.31139 4.41243L1.91304 4.41304C1.67089 4.41304 1.43865 4.5098 1.26742 4.68204C1.0962 4.85427 1 5.08788 1 5.33145C1 5.57503 1.0962 5.80863 1.26742 5.98087C1.43865 6.15311 1.67089 6.24987 1.91304 6.24987H4.822L4.00635 9.31125H1.91304C1.67089 9.31125 1.43865 9.40801 1.26742 9.58024C1.0962 9.75248 1 9.98608 1 10.2297C1 10.4732 1.0962 10.7068 1.26742 10.8791C1.43865 11.0513 1.67089 11.1481 1.91304 11.1481H3.51696L3.00687 13.0657C2.9359 13.3601 2.98223 13.6708 3.13595 13.9313C3.28967 14.1918 3.53859 14.3815 3.82952 14.4599C4.12045 14.5383 4.43031 14.4991 4.69288 14.3507C4.95545 14.2023 5.14991 13.9564 5.2347 13.6658L5.90609 11.1481H8.13087L7.62078 13.0663C7.54981 13.3608 7.59614 13.6714 7.74986 13.9319C7.90358 14.1924 8.15251 14.3822 8.44344 14.4605C8.73437 14.5389 9.04422 14.4997 9.3068 14.3513C9.56937 14.2029 9.76382 13.9571 9.84861 13.6664L10.5188 11.1481H13.4783C13.7204 11.1481 13.9527 11.0513 14.1239 10.8791C14.2951 10.7068 14.3913 10.4732 14.3913 10.2297C14.3913 9.98608 14.2951 9.75248 14.1239 9.58024C13.9527 9.40801 13.7204 9.31125 13.4783 9.31125H11.0082L12.833 2.45988C12.9121 2.16272 12.8705 1.84616 12.7176 1.57979C12.5646 1.31342 12.3128 1.11905 12.0174 1.0394ZM9.4353 6.24987L8.61965 9.31125H6.39487L7.21052 6.24987H9.4353ZM14.087 4.41304C13.8448 4.41304 13.6126 4.5098 13.4413 4.68204C13.2701 4.85427 13.1739 5.08788 13.1739 5.33145C13.1739 5.57503 13.2701 5.80863 13.4413 5.98087C13.6126 6.15311 13.8448 6.24987 14.087 6.24987C14.3291 6.24987 14.5613 6.15311 14.7326 5.98087C14.9038 5.80863 15 5.57503 15 5.33145C15 5.08788 14.9038 4.85427 14.7326 4.68204C14.5613 4.5098 14.3291 4.41304 14.087 4.41304Z" fill="url(#paint0_linear_2669_12858)"/>
</g>
<defs>
<linearGradient id="paint0_linear_2669_12858" x1="4.75" y1="2.56696" x2="11.3911" y2="13.5124" gradientUnits="userSpaceOnUse">
<stop stop-color="#A564FF"/>
<stop offset="1" stop-color="#5EA1F9"/>
</linearGradient>
</defs>
</svg>
