<svg width="40" height="40" viewBox="0 0 40 40" fill="none" xmlns="http://www.w3.org/2000/svg">
<g id="Group 1000004919">
<circle id="Ellipse 2025" cx="20" cy="20" r="20" fill="#3C3754"/>
<g id="Group 48095779">
<mask id="mask0_2458_7259" style="mask-type:alpha" maskUnits="userSpaceOnUse" x="0" y="0" width="40" height="40">
<circle id="Ellipse 2026" cx="20" cy="20" r="20" fill="#251650"/>
</mask>
<g mask="url(#mask0_2458_7259)">
<g id="Group 48095783">
<path id="Vector 1175" d="M8.17912 30.8405C5.81536 21.6893 9.16403 15.6159 11.1338 13.7231C10.6414 2.03717 27.3916 3.50209 31.0781 12.1595C34.8898 21.1109 32.2231 27.7776 27.5488 30.5113C30.4453 28.0866 31.112 25.3332 31.5564 22.8887C28.6674 32.6983 13.131 35.8605 5.63477 36.6011C6.64703 35.3941 8.57306 32.5522 8.17912 30.8405Z" fill="black"/>
<path id="Vector 1176" d="M11.0747 13.741C11.9331 13.9392 13.6883 12.2274 14.4587 11.3467C17.8426 15.8051 20.8965 15.9702 22.4647 15.9702C22.7949 13.9061 24.198 13.4933 25.436 14.4841C26.6741 15.4748 25.9312 18.1994 24.6107 18.7773C26.0963 19.8507 25.3535 23.566 25.1884 26.7859C25.0234 30.0059 27.4169 33.391 30.8834 33.0607C33.6566 32.7965 34.9552 33.3359 35.2578 33.6387L36.0006 37.0237L18.3379 43.216C13.0281 41.7023 3.08522 37.9815 5.79241 35.2074C9.17639 31.7397 12.2302 32.8956 14.4587 32.813C16.6871 32.7305 17.0998 29.3454 16.9348 28.0244C18.5855 27.7602 20.1537 26.153 20.7314 25.3824C19.3833 26.1805 16.324 27.5785 14.8713 26.7859C10.1668 24.3091 11.0747 18.4471 11.0747 13.741Z" fill="#CF63F5"/>
<path id="Vector 1177" d="M14.8898 11.1108C14.8157 12.1479 14.2231 14.5331 12.4453 15.7775" stroke="black" stroke-width="0.545455"/>
<path id="Vector 1178" d="M23.334 37.569C23.9266 36.7542 25.6451 35.169 27.7784 35.3468" stroke="black" stroke-width="0.545455"/>
<path id="Vector 1179" d="M15.5566 32.0282C17.0011 33.4472 21.3344 35.3393 27.1122 31.5552" stroke="white" stroke-width="0.727273"/>
</g>
</g>
</g>
</g>
</svg>
